{
	"asset":{
		"generator":"Khronos glTF Blender I/O v4.1.63",
		"version":"2.0"
	},
	"extensionsUsed":[
		"KHR_materials_specular"
	],
	"scene":0,
	"scenes":[
		{
			"name":"Scene",
			"nodes":[
				0,
				1
			]
		}
	],
	"nodes":[
		{
			"mesh":0,
			"name":"FinalBaseMesh",
			"rotation":[
				0.7071068286895752,
				0,
				0,
				0.7071068286895752
			]
		},
		{
			"name":"\u592a\u967d\u7a74",
			"translation":[
				0.6208584308624268,
				20.0367431640625,
				0.5097366571426392
			]
		}
	],
	"materials":[
		{
			"doubleSided":true,
			"extensions":{
				"KHR_materials_specular":{
					"specularFactor":0
				}
			},
			"name":"default",
			"pbrMetallicRoughness":{
				"baseColorFactor":[
					0.800000011920929,
					0.800000011920929,
					0.800000011920929,
					1
				],
				"metallicFactor":0
			}
		}
	],
	"meshes":[
		{
			"name":"FinalBaseMesh",
			"primitives":[
				{
					"attributes":{
						"POSITION":0,
						"NORMAL":1
					},
					"indices":2,
					"material":0
				}
			]
		}
	],
	"accessors":[
		{
			"bufferView":0,
			"componentType":5126,
			"count":24461,
			"max":[
				5.84250020980835,
				1.9170000553131104,
				0.05660000070929527
			],
			"min":[
				-5.84250020980835,
				-1.8530999422073364,
				-20.684099197387695
			],
			"type":"VEC3"
		},
		{
			"bufferView":1,
			"componentType":5126,
			"count":24461,
			"type":"VEC3"
		},
		{
			"bufferView":2,
			"componentType":5123,
			"count":146754,
			"type":"SCALAR"
		}
	],
	"bufferViews":[
		{
			"buffer":0,
			"byteLength":293532,
			"byteOffset":0,
			"target":34962
		},
		{
			"buffer":0,
			"byteLength":293532,
			"byteOffset":293532,
			"target":34962
		},
		{
			"buffer":0,
			"byteLength":293508,
			"byteOffset":587064,
			"target":34963
		}
	],
	"buffers":[
		{
			"byteLength":880572,
			"uri":"testing.bin"
		}
	]
}
